<svg xmlns="http://www.w3.org/2000/svg" viewBox="0 0 2000 1000" fill="none">
  <defs>
    <style>
      .land { fill: none; stroke: #CCCCCC; stroke-width: 0.5; opacity: 0.3; }
    </style>
  </defs>
  
  <!-- North America -->
  <path class="land" d="M 180 120 Q 190 115 200 118 L 210 125 Q 220 135 230 140 L 240 148 Q 245 155 250 160 L 260 168 Q 268 175 275 180 L 285 188 Q 292 195 298 200 L 305 208 Q 310 215 315 220 L 322 228 Q 328 235 333 240 L 338 248 Q 342 255 345 260 L 348 268 Q 350 275 351 280 L 352 285 Q 352 290 351 295 L 350 300 Q 348 305 345 310 L 342 315 Q 338 320 333 325 L 328 330 Q 322 335 315 338 L 308 341 Q 300 343 292 344 L 284 345 Q 276 345 268 344 L 260 342 Q 252 340 245 337 L 238 333 Q 232 329 226 324 L 220 318 Q 215 312 210 305 L 206 298 Q 202 291 199 284 L 196 277 Q 194 270 192 263 L 191 256 Q 190 249 190 242 L 190 235 Q 191 228 192 221 L 194 214 Q 196 208 199 202 L 202 196 Q 206 191 210 186 L 215 181 Q 220 176 226 172 L 232 168 Q 238 165 245 162 L 252 160 Q 260 158 268 157 L 276 157 Q 284 157 292 158"/>
  
  <path class="land" d="M 220 240 L 225 245 Q 228 250 230 255 L 232 262 Q 233 269 233 276 L 233 283 Q 232 290 230 297 L 228 304 Q 225 311 221 317 L 217 323 Q 212 329 206 334 L 200 339 Q 193 343 186 346 L 179 349 Q 171 351 163 352 L 155 352 Q 147 351 140 349 L 133 346 Q 126 342 120 337 L 115 331 Q 110 325 106 318 L 103 311 Q 100 304 98 296 L 97 288 Q 96 280 96 272 L 97 264 Q 98 256 100 249 L 103 242 Q 106 235 110 229 L 115 223 Q 120 218 126 213 L 133 209 Q 140 205 148 202 L 156 200 Q 164 199 172 199 L 180 200 Q 188 201 195 203 L 202 206 Q 209 210 215 215"/>
  
  <!-- South America -->
  <path class="land" d="M 280 380 L 285 385 Q 288 390 290 395 L 292 402 Q 293 409 293 416 L 293 423 Q 292 430 290 437 L 288 444 Q 285 451 281 457 L 277 463 Q 272 469 266 474 L 260 479 Q 253 483 246 486 L 239 489 Q 231 491 223 492 L 215 492 Q 207 491 200 489 L 193 486 Q 186 482 180 477 L 175 471 Q 170 465 166 458 L 163 451 Q 160 444 158 436 L 157 428 Q 156 420 156 412 L 157 404 Q 158 396 160 389 L 163 382 Q 166 375 170 369 L 175 363 Q 180 358 186 353 L 193 349 Q 200 345 208 342 L 216 340 Q 224 339 232 339 L 240 340 Q 248 341 255 343 L 262 346 Q 269 350 275 355"/>
  
  <!-- Europe -->
  <path class="land" d="M 480 180 L 485 182 Q 490 185 495 188 L 500 192 Q 505 196 509 201 L 513 206 Q 517 211 520 217 L 523 223 Q 525 229 527 235 L 528 241 Q 529 247 529 253 L 529 259 Q 528 265 526 271 L 524 277 Q 521 283 517 288 L 513 293 Q 508 298 503 302 L 497 306 Q 491 309 485 312 L 478 314 Q 471 316 464 317 L 457 317 Q 450 316 443 314 L 437 311 Q 431 308 426 304 L 421 299 Q 417 294 413 288 L 410 282 Q 407 276 405 269 L 404 262 Q 403 255 403 248 L 404 241 Q 405 234 407 228 L 410 222 Q 413 216 417 211 L 421 206 Q 426 202 431 198 L 437 195 Q 443 192 450 190 L 457 189 Q 464 188 471 189 L 478 190"/>
  
  <!-- Africa -->
  <path class="land" d="M 520 260 L 525 263 Q 530 267 534 271 L 538 276 Q 542 281 545 287 L 548 293 Q 551 299 553 305 L 555 312 Q 557 319 558 326 L 559 333 Q 560 340 560 347 L 560 354 Q 559 361 557 368 L 555 375 Q 552 382 548 388 L 544 394 Q 539 400 534 405 L 528 410 Q 522 414 515 418 L 508 421 Q 500 424 492 426 L 484 427 Q 476 427 468 426 L 460 424 Q 453 421 446 417 L 440 412 Q 434 407 429 401 L 425 395 Q 421 389 418 382 L 416 375 Q 414 368 413 360 L 413 352 Q 413 344 414 337 L 416 330 Q 418 323 421 317 L 425 311 Q 429 305 434 300 L 440 295 Q 446 291 453 287 L 460 284 Q 468 281 476 279 L 484 278 Q 492 278 500 279 L 508 281 Q 515 283 522 286"/>
  
  <!-- Asia -->
  <path class="land" d="M 700 130 L 710 132 Q 720 135 729 139 L 738 144 Q 747 149 755 155 L 763 162 Q 771 169 778 177 L 785 185 Q 792 194 798 203 L 804 212 Q 810 222 815 232 L 820 242 Q 825 253 829 264 L 833 275 Q 837 287 840 299 L 843 311 Q 846 323 848 336 L 849 349 Q 850 362 850 375 L 849 388 Q 848 401 846 414 L 843 426 Q 840 438 836 450 L 831 461 Q 826 472 820 482 L 813 492 Q 806 501 798 509 L 789 517 Q 780 524 770 530 L 760 535 Q 749 540 738 544 L 726 547 Q 714 550 702 551 L 690 552 Q 678 552 666 551 L 654 549 Q 643 546 632 542 L 622 537 Q 612 531 603 524 L 595 516 Q 587 508 580 499 L 574 489 Q 568 479 563 468 L 559 457 Q 555 446 552 434 L 550 422 Q 548 410 547 398 L 547 386 Q 547 374 548 362 L 550 350 Q 552 338 555 327 L 559 316 Q 563 305 568 295 L 574 285 Q 580 276 587 267 L 595 259 Q 603 251 612 244 L 622 238 Q 632 232 643 227 L 654 223 Q 666 220 678 218"/>
  
  <!-- Australia -->
  <path class="land" d="M 1450 520 L 1455 522 Q 1460 525 1464 528 L 1468 532 Q 1472 536 1475 541 L 1478 546 Q 1481 551 1483 557 L 1485 563 Q 1487 569 1488 575 L 1489 581 Q 1490 587 1490 593 L 1490 599 Q 1489 605 1487 611 L 1485 617 Q 1482 623 1478 628 L 1474 633 Q 1469 638 1464 642 L 1458 646 Q 1452 649 1446 652 L 1439 654 Q 1432 656 1425 657 L 1418 657 Q 1411 656 1404 654 L 1398 651 Q 1392 648 1387 644 L 1382 639 Q 1378 634 1374 628 L 1371 622 Q 1368 616 1366 609 L 1365 602 Q 1364 595 1364 588 L 1365 581 Q 1366 574 1368 568 L 1371 562 Q 1374 556 1378 551 L 1382 546 Q 1387 542 1392 538 L 1398 535 Q 1404 532 1411 530 L 1418 529 Q 1425 528 1432 529 L 1439 530 Q 1446 532 1452 535"/>
  
  <!-- Additional continents and islands with more detail -->
  <path class="land" d="M 1100 280 L 1105 282 Q 1110 285 1114 288 L 1118 292 Q 1122 296 1125 301 L 1128 306 Q 1131 311 1133 317 L 1135 323 Q 1137 329 1138 335 L 1139 341 Q 1140 347 1140 353 L 1140 359 Q 1139 365 1137 371 L 1135 377 Q 1132 383 1128 388 L 1124 393 Q 1119 398 1114 402 L 1108 406 Q 1102 409 1096 412 L 1089 414 Q 1082 416 1075 417 L 1068 417 Q 1061 416 1054 414 L 1048 411 Q 1042 408 1037 404 L 1032 399 Q 1028 394 1024 388 L 1021 382 Q 1018 376 1016 369 L 1015 362 Q 1014 355 1014 348 L 1015 341 Q 1016 334 1018 328 L 1021 322 Q 1024 316 1028 311 L 1032 306 Q 1037 302 1042 298 L 1048 295 Q 1054 292 1061 290 L 1068 289 Q 1075 288 1082 289 L 1089 290 Q 1096 292 1102 295"/>
  
  <path class="land" d="M 1250 310 L 1255 312 Q 1260 315 1264 318 L 1268 322 Q 1272 326 1275 331 L 1278 336 Q 1281 341 1283 347 L 1285 353 Q 1287 359 1288 365 L 1289 371 Q 1290 377 1290 383 L 1290 389 Q 1289 395 1287 401 L 1285 407 Q 1282 413 1278 418 L 1274 423 Q 1269 428 1264 432 L 1258 436 Q 1252 439 1246 442 L 1239 444 Q 1232 446 1225 447 L 1218 447 Q 1211 446 1204 444 L 1198 441 Q 1192 438 1187 434 L 1182 429 Q 1178 424 1174 418 L 1171 412 Q 1168 406 1166 399 L 1165 392 Q 1164 385 1164 378 L 1165 371 Q 1166 364 1168 358 L 1171 352 Q 1174 346 1178 341 L 1182 336 Q 1187 332 1192 328 L 1198 325 Q 1204 322 1211 320 L 1218 319 Q 1225 318 1232 319 L 1239 320 Q 1246 322 1252 325"/>
  
  <!-- Japan -->
  <path class="land" d="M 1380 265 L 1383 267 Q 1386 269 1389 272 L 1391 275 Q 1393 278 1395 282 L 1396 286 Q 1397 290 1398 294 L 1398 298 Q 1398 302 1397 306 L 1396 310 Q 1394 314 1392 317 L 1389 320 Q 1386 323 1383 325 L 1379 327 Q 1375 329 1371 330 L 1367 331 Q 1363 331 1359 330 L 1355 329 Q 1351 327 1348 325 L 1345 322 Q 1342 319 1340 315 L 1339 311 Q 1338 307 1338 303 L 1338 299 Q 1339 295 1340 291 L 1342 287 Q 1344 284 1347 281 L 1350 278 Q 1353 276 1357 274 L 1361 273 Q 1365 272 1369 272 L 1373 273 Q 1377 274 1380 276"/>
  
  <!-- Philippines -->
  <path class="land" d="M 1310 410 L 1313 412 Q 1316 414 1318 417 L 1320 420 Q 1322 423 1323 427 L 1324 431 Q 1325 435 1325 439 L 1325 443 Q 1324 447 1323 451 L 1321 455 Q 1319 458 1316 461 L 1313 464 Q 1310 466 1306 468 L 1302 469 Q 1298 470 1294 470 L 1290 469 Q 1286 468 1283 466 L 1280 463 Q 1277 460 1275 457 L 1274 453 Q 1273 449 1273 445 L 1273 441 Q 1274 437 1275 433 L 1277 430 Q 1279 427 1282 424 L 1285 422 Q 1288 420 1292 419 L 1296 418 Q 1300 418 1304 419 L 1308 420"/>
  
  <!-- New Zealand -->
  <path class="land" d="M 1580 620 L 1583 622 Q 1586 624 1588 627 L 1590 630 Q 1592 633 1593 637 L 1594 641 Q 1595 645 1595 649 L 1595 653 Q 1594 657 1593 661 L 1591 665 Q 1589 668 1586 671 L 1583 674 Q 1580 676 1576 678 L 1572 679 Q 1568 680 1564 680 L 1560 679 Q 1556 678 1553 676 L 1550 673 Q 1547 670 1545 667 L 1544 663 Q 1543 659 1543 655 L 1543 651 Q 1544 647 1545 643 L 1547 640 Q 1549 637 1552 634 L 1555 632 Q 1558 630 1562 629 L 1566 628 Q 1570 628 1574 629 L 1578 630"/>
  
  <!-- Madagascar -->
  <path class="land" d="M 615 460 L 618 462 Q 621 464 623 467 L 625 470 Q 627 473 628 477 L 629 481 Q 630 485 630 489 L 630 493 Q 629 497 628 501 L 626 505 Q 624 508 621 511 L 618 514 Q 615 516 611 518 L 607 519 Q 603 520 599 520 L 595 519 Q 591 518 588 516 L 585 513 Q 582 510 580 507 L 579 503 Q 578 499 578 495 L 578 491 Q 579 487 580 483 L 582 480 Q 584 477 587 474 L 590 472 Q 593 470 597 469 L 601 468 Q 605 468 609 469 L 613 470"/>
  
  <!-- Iceland -->
  <path class="land" d="M 435 140 L 438 142 Q 441 144 443 147 L 445 150 Q 447 153 448 157 L 449 161 Q 450 165 450 169 L 450 173 Q 449 177 448 181 L 446 185 Q 444 188 441 191 L 438 194 Q 435 196 431 198 L 427 199 Q 423 200 419 200 L 415 199 Q 411 198 408 196 L 405 193 Q 402 190 400 187 L 399 183 Q 398 179 398 175 L 398 171 Q 399 167 400 163 L 402 160 Q 404 157 407 154 L 410 152 Q 413 150 417 149 L 421 148 Q 425 148 429 149 L 433 150"/>
  
  <!-- UK and Ireland -->
  <path class="land" d="M 465 195 L 468 197 Q 471 199 473 202 L 475 205 Q 477 208 478 212 L 479 216 Q 480 220 480 224 L 480 228 Q 479 232 478 236 L 476 240 Q 474 243 471 246 L 468 249 Q 465 251 461 253 L 457 254 Q 453 255 449 255 L 445 254 Q 441 253 438 251 L 435 248 Q 432 245 430 242 L 429 238 Q 428 234 428 230 L 428 226 Q 429 222 430 218 L 432 215 Q 434 212 437 209 L 440 207 Q 443 205 447 204 L 451 203 Q 455 203 459 204 L 463 205"/>
</svg>

